<svg width="24" height="8" viewBox="0 0 24 8" fill="none" xmlns="http://www.w3.org/2000/svg">
<path d="M5.033 6.64898H0.743C0.59611 6.64935 0.452435 6.60599 0.33027 6.52443C0.208104 6.44287 0.112977 6.32679 0.057 6.19098C0.000602361 6.05561 -0.0142986 5.90653 0.0141887 5.76267C0.042676 5.6188 0.113267 5.48665 0.217 5.38299L3.19 2.40998H1.06C0.77887 2.40998 0.509255 2.29831 0.310467 2.09952C0.111678 1.90073 0 1.63111 0 1.34999H3.957C4.258 1.34999 4.527 1.52998 4.643 1.80798C4.69927 1.94346 4.71401 2.0926 4.68535 2.23646C4.65668 2.38033 4.5859 2.51243 4.482 2.61598L1.51 5.58998H3.974C4.559 5.58998 5.034 6.06498 5.034 6.64998L5.033 6.64898ZM24 3.33799C24 2.19799 23.073 1.27199 21.934 1.27199C21.324 1.27199 20.776 1.53698 20.397 1.95798C20.2036 1.74205 19.9669 1.56934 19.7022 1.45114C19.4375 1.33293 19.1509 1.27188 18.861 1.27199C17.721 1.27199 16.795 2.19799 16.795 3.33799V6.64898C17.0761 6.64898 17.3457 6.53731 17.5445 6.33852C17.7433 6.13973 17.855 5.87011 17.855 5.58898V3.33799C17.855 3.07104 17.961 2.81504 18.1498 2.62628C18.3386 2.43753 18.5946 2.33148 18.8615 2.33148C19.1284 2.33148 19.3844 2.43753 19.5732 2.62628C19.762 2.81504 19.868 3.07104 19.868 3.33799V5.58898C19.868 6.17498 20.342 6.64898 20.928 6.64898V3.33799C20.928 3.07118 21.034 2.8153 21.2227 2.62664C21.4113 2.43797 21.6672 2.33198 21.934 2.33198C22.2008 2.33198 22.4567 2.43797 22.6453 2.62664C22.834 2.8153 22.94 3.07118 22.94 3.33799V5.58898C22.94 6.17498 23.415 6.64898 24 6.64898V3.33799ZM16.265 3.99998C16.265 4.3583 16.1944 4.7131 16.0573 5.04414C15.9202 5.37517 15.7192 5.67596 15.4658 5.92933C15.2125 6.18269 14.9117 6.38367 14.5807 6.52079C14.2496 6.65791 13.8948 6.72849 13.5365 6.72849C13.1782 6.72849 12.8234 6.65791 12.4923 6.52079C12.1613 6.38367 11.8605 6.18269 11.6072 5.92933C11.3538 5.67596 11.1528 5.37517 11.0157 5.04414C10.8786 4.7131 10.808 4.3583 10.808 3.99998C10.808 3.27634 11.0955 2.58234 11.6072 2.07064C12.1189 1.55895 12.8129 1.27148 13.5365 1.27148C14.2601 1.27148 14.9541 1.55895 15.4658 2.07064C15.9775 2.58234 16.265 3.27634 16.265 3.99998ZM15.205 3.99998C15.205 3.55734 15.0292 3.13282 14.7162 2.81982C14.4032 2.50683 13.9786 2.33099 13.536 2.33099C13.0934 2.33099 12.6688 2.50683 12.3558 2.81982C12.0428 3.13282 11.867 3.55734 11.867 3.99998C11.867 4.44263 12.0428 4.86715 12.3558 5.18015C12.6688 5.49314 13.0934 5.66898 13.536 5.66898C13.9786 5.66898 14.4032 5.49314 14.7162 5.18015C15.0292 4.86715 15.205 4.44263 15.205 3.99998ZM10.385 3.99998C10.385 4.35836 10.3144 4.71323 10.1773 5.04433C10.0401 5.37543 9.83911 5.67627 9.58569 5.92968C9.33228 6.18309 9.03144 6.38411 8.70034 6.52125C8.36925 6.6584 8.01438 6.72898 7.656 6.72898C7.29762 6.72898 6.94275 6.6584 6.61166 6.52125C6.28056 6.38411 5.97972 6.18309 5.72631 5.92968C5.47289 5.67627 5.27188 5.37543 5.13473 5.04433C4.99759 4.71323 4.927 4.35836 4.927 3.99998C4.927 3.27634 5.21447 2.58234 5.72616 2.07064C6.23785 1.55895 6.93186 1.27148 7.6555 1.27148C8.37914 1.27148 9.07315 1.55895 9.58484 2.07064C10.0965 2.58234 10.384 3.27634 10.384 3.99998H10.385ZM9.325 3.99998C9.325 3.55734 9.14916 3.13282 8.83616 2.81982C8.52316 2.50683 8.09865 2.33099 7.656 2.33099C7.21335 2.33099 6.78884 2.50683 6.47584 2.81982C6.16284 3.13282 5.987 3.55734 5.987 3.99998C5.987 4.44263 6.16284 4.86715 6.47584 5.18015C6.78884 5.49314 7.21335 5.66898 7.656 5.66898C8.09865 5.66898 8.52316 5.49314 8.83616 5.18015C9.14916 4.86715 9.325 4.44263 9.325 3.99998Z" fill="black"/>
</svg>
